<?xml version="1.0" encoding="UTF-8" standalone="no"?>
<!-- Created with Inkscape (http://www.inkscape.org/) -->

<svg
   xmlns:dc="http://purl.org/dc/elements/1.1/"
   xmlns:cc="http://creativecommons.org/ns#"
   xmlns:rdf="http://www.w3.org/1999/02/22-rdf-syntax-ns#"
   xmlns:svg="http://www.w3.org/2000/svg"
   xmlns="http://www.w3.org/2000/svg"
   xmlns:sodipodi="http://sodipodi.sourceforge.net/DTD/sodipodi-0.dtd"
   xmlns:inkscape="http://www.inkscape.org/namespaces/inkscape"
   width="265.94479"
   height="272.75461"
   id="svg3101"
   version="1.1"
   inkscape:version="0.48.4 r9939"
   sodipodi:docname="cow_head.svg"
   inkscape:export-filename="C:\Users\TorbjørnAuglænd\Documents\GitHub\tba4251\cow_head.png"
   inkscape:export-xdpi="90"
   inkscape:export-ydpi="90">
  <defs
     id="defs3103" />
  <sodipodi:namedview
     id="base"
     pagecolor="#ffffff"
     bordercolor="#666666"
     borderopacity="1.0"
     inkscape:pageopacity="0.0"
     inkscape:pageshadow="2"
     inkscape:zoom="1.979899"
     inkscape:cx="77.846597"
     inkscape:cy="110.72595"
     inkscape:document-units="px"
     inkscape:current-layer="layer2"
     showgrid="false"
     fit-margin-top="0"
     fit-margin-left="0"
     fit-margin-right="0"
     fit-margin-bottom="0"
     inkscape:window-width="1920"
     inkscape:window-height="1003"
     inkscape:window-x="-9"
     inkscape:window-y="-9"
     inkscape:window-maximized="1" />
  <metadata
     id="metadata3106">
    <rdf:RDF>
      <cc:Work
         rdf:about="">
        <dc:format>image/svg+xml</dc:format>
        <dc:type
           rdf:resource="http://purl.org/dc/dcmitype/StillImage" />
      </cc:Work>
    </rdf:RDF>
  </metadata>
  <g
     inkscape:groupmode="layer"
     id="layer2"
     inkscape:label="mouth">
    <path
       sodipodi:type="arc"
       style="fill:#ffffff;stroke:#000000;stroke-opacity:1"
       id="path3927"
       sodipodi:cx="28.031733"
       sodipodi:cy="178.81042"
       sodipodi:rx="48.739861"
       sodipodi:ry="23.233509"
       d="m 76.771593,178.81042 a 48.739861,23.233509 0 1 1 -97.479721,0 48.739861,23.233509 0 1 1 97.479721,0 z"
       transform="translate(104.04571,47.47717)" />
  </g>
  <g
     inkscape:label="Layer 1"
     inkscape:groupmode="layer"
     id="layer1"
     transform="translate(-242.0276,-396.03129)">
    <path
       inkscape:connector-curvature="0"
       style="font-size:medium;font-style:normal;font-variant:normal;font-weight:normal;font-stretch:normal;text-indent:0;text-align:start;text-decoration:none;line-height:normal;letter-spacing:normal;word-spacing:normal;text-transform:none;direction:ltr;block-progression:tb;writing-mode:lr-tb;text-anchor:start;color:#000000;fill:#000000;fill-opacity:1;fill-rule:nonzero;stroke:none;stroke-width:4.19999981;marker:none;visibility:visible;display:inline;overflow:visible;enable-background:accumulate;font-family:Adler;-inkscape-font-specification:Adler"
       d="m 402.18326,595.21004 c -9.50182,0.13577 -20.20913,1.89511 -32.12095,5.8913 -23.04356,-4.83097 -43.21177,3.94001 -57.6993,14.95031 -7.30366,5.55067 -13.20932,11.6819 -17.40748,16.99302 -2.09909,2.65556 -3.75248,5.11723 -4.97357,7.22351 -1.22109,2.10628 -2.03183,3.78374 -2.30916,5.32882 a 1.9896256,1.9896256 0 0 0 2.93085,2.07232 c 0,0 6.82278,-3.54504 13.02601,-6.5426 -3.73697,6.3346 -5.60836,13.60617 -7.99323,23.62444 a 1.9896256,1.9896256 0 0 0 2.84204,2.24994 c 2.49367,-1.24954 5.09186,-3.63336 8.05244,-6.63142 2.96058,-2.99805 6.19195,-6.63678 9.47346,-10.27278 3.35647,-3.71905 6.83037,-7.42175 10.00634,-10.50962 -0.77501,2.48723 -1.37939,5.08421 -1.80588,7.786 -1.09176,6.9164 -1.35548,14.19486 -2.01311,19.18376 a 1.9896256,1.9896256 0 0 0 3.07888,1.89469 c 6.98152,-4.70869 12.01954,-15.63178 19.03574,-25.45993 7.01619,-9.82814 15.45596,-18.34131 27.9467,-18.88771 12.74111,-0.55734 23.20274,4.56887 32.62424,12.19708 9.42149,7.62821 17.67132,17.74111 25.66715,26.85134 a 1.9896256,1.9896256 0 0 0 3.46374,-1.50983 c -0.51695,-5.0155 -3.38659,-14.00047 -6.12815,-22.08501 -1.61639,-4.76656 -2.14666,-6.09288 -3.16769,-8.88137 3.3599,2.96142 7.13647,7.00494 11.19053,11.6346 6.20814,7.08957 13.06897,15.21405 20.51596,21.64093 a 1.9896256,1.9896256 0 0 0 3.28611,-1.65785 c -0.60809,-8.82728 -4.54151,-18.76032 -9.14781,-27.08818 -2.13248,-3.85536 -4.40062,-7.28446 -6.60182,-10.15436 6.97172,3.18182 14.87581,7.45733 20.16071,10.53922 a 1.9896256,1.9896256 0 0 0 2.75322,-2.69401 c -2.57653,-4.56099 -10.58701,-18.01358 -26.17043,-27.56185 -9.73965,-5.96768 -22.44832,-10.35435 -38.51554,-10.12476 z"
       id="path3924" />
    <path
       inkscape:connector-curvature="0"
       style="font-size:medium;font-style:normal;font-variant:normal;font-weight:normal;font-stretch:normal;text-indent:0;text-align:start;text-decoration:none;line-height:normal;letter-spacing:normal;word-spacing:normal;text-transform:none;direction:ltr;block-progression:tb;writing-mode:lr-tb;text-anchor:start;color:#000000;fill:#00ff00;fill-opacity:1;fill-rule:nonzero;stroke:none;stroke-width:4.19999981;marker:none;visibility:visible;display:inline;overflow:visible;enable-background:accumulate;font-family:Adler;-inkscape-font-specification:Adler"
       d="m 459.2016,628.36715 c -5.01836,-1.19557 -14.31583,-9.77586 -25.24847,-9.49394 8.24513,5.66762 18.42546,28.5548 20.8966,37.94392 -5.87446,-4.98086 -29.91126,-36.01688 -35.5327,-33.11938 -0.11594,9.57678 6.27512,21.09022 9.00701,30.89904 -6.43216,-7.422 -13.1735,-15.09965 -20.96003,-21.4041 -9.87313,-7.99387 -21.38058,-13.66401 -35.28864,-13.05561 -14.22026,0.62205 -23.73002,10.36756 -30.99598,20.54557 -5.61457,7.86477 -10.22454,16.03754 -14.41742,20.98963 0.50135,-14.61494 1.15509,-18.54829 8.07109,-31.44145 -12.18578,7.08798 -21.40605,17.35936 -31.04424,27.32642 -1.00975,1.02254 -1.90306,1.81815 -2.81243,2.6348 -2.48914,-6.26766 5.87568,-19.4657 10.66292,-25.30454 -6.18453,0.94888 -13.15268,4.17021 -17.50153,6.44644 20.09819,-30.37843 42.84943,-34.40937 76.79425,-36.2952 34.99417,-12.23181 67.5829,-4.63591 88.36957,23.3284 z"
       id="path3100"
       sodipodi:nodetypes="cccccssscccccccc" />
    <g
       id="g5207"
       transform="matrix(1.7332738,0,0,1.6196403,-432.88072,317.13732)">
      <g
         transform="translate(356.15282,82.66603)"
         id="g5112">
        <path
           inkscape:connector-curvature="0"
           style="fill:#ffffff;fill-opacity:1;fill-rule:evenodd;stroke:none"
           d="m 130.47297,-3.2500809 c -9.51577,-1.0964062 -12.52524,0.074699 -13.32971,-4.6293424 -3.97268,0.9626615 -7.31143,-0.1306439 -8.48595,-0.3800039 -2.46705,0.4479928 -3.49194,2.9183556 -9.070489,-1.8687688 -1.42422,-1.09752 -0.404854,1.782601 0.317591,4.2455614 C 91.054195,-5.070263 70.329698,-9.0216788 70.178642,23.958 c 0.27457,0.50858 0.42826,1.25844 0.5,2.40625 0.0717,1.14781 0.084,2.70217 0.0937,4.75 0.0165,3.46308 0.0498,5.36729 0.3125,7.000004 0.2627,1.63271 0.73555,2.98225 1.65625,5.34375 0.59359,1.5225 1.1556,3.30054 1.625,5.125 -0.48492,4.81365 0.20255,11.70851 3.32239,10.69027 1.861127,-0.60743 5.922877,-8.30289 7.427607,-9.12777 1.61912,-0.86419 3.46412,-1.7216 5.34375,-2.46875 1.87963,-0.74715 3.77868,-1.37469 5.5,-1.78125 3.30611,-0.78087 7.153481,-1.31224 11.218751,-1.5625 4.06527,-0.25026 8.35659,-0.24259 12.53125,0 4.17466,0.24259 8.24074,0.73982 11.875,1.4375 1.81713,0.34884 3.53355,0.73197 5.09375,1.1875 1.5602,0.45553 2.96546,0.97374 4.1875,1.53125 1.67693,0.76504 3.1435,1.31463 3.25,1.21875 5.2729,-6.921 5.04858,-13.67618 7.06458,-21.12362 0.48407,-2.34149 -0.21131,-5.123044 -0.0333,-6.845134 C 150.92676,8.7545014 139.59062,2.9093965 130.47297,-3.2500809 z"
           id="path4635"
           sodipodi:nodetypes="ccccccsssscscssssssscccc" />
        <path
           inkscape:connector-curvature="0"
           style="fill:#ffaaaa;fill-opacity:1;fill-rule:evenodd;stroke:none"
           d="m 89.48867,49.868554 c 2.104,-0.89069 4.2664,-1.58599 6.59375,-2.11551 2.32735,-0.52951 4.81514,-0.8778 7.625,-1.10512 2.80986,-0.22731 5.91721,-0.33166 9.46875,-0.31574 3.99752,0.0179 7.54484,0.16118 10.6875,0.41047 3.14266,0.24928 5.88686,0.62052 8.34375,1.13669 2.45689,0.51617 4.62227,1.17064 6.5625,1.98921 1.94023,0.81857 3.65734,1.77995 5.25,2.93646 1.48216,1.07626 2.48273,1.9081 3.40625,3.03118 0.92352,1.12309 1.76387,2.53836 3,4.7678 1.39889,2.52296 2.15342,3.91392 2.5625,5.27299 0.40908,1.35907 0.48382,2.68858 0.59375,5.17827 0.0908,2.05642 0.0909,3.5821 -0.0625,4.98882 -0.15342,1.40672 -0.4752,2.68928 -0.96875,4.32575 -0.75753,2.51173 -1.64014,4.78779 -2.75,6.85173 -1.10986,2.06394 -2.44721,3.9356 -4,5.65189 -1.55279,1.71628 -3.31993,3.26745 -5.40625,4.73622 -2.08632,1.46877 -4.47705,2.846456 -7.1875,4.167856 -1.65715,0.8079 -3.1958,1.47897 -4.6875,2.05237 -1.4917,0.57339 -2.94696,1.06357 -4.46875,1.45244 -3.04358,0.77775 -6.31898,1.23928 -10.65625,1.57874 -3.93612,0.19101 -8.13649,0.30922 -12.3125,0.15787 -2.088,-0.0757 -4.15781,-0.22415 -6.21875,-0.47362 -2.06094,-0.24947 -4.08664,-0.5915 -6.0625,-1.07354 -1.97586,-0.48205 -3.91725,-1.08947 -5.75,-1.86292 -1.83275,-0.77344 -3.55588,-1.7181 -5.1875,-2.84173 -1.63162,-1.123616 -3.15879,-2.445796 -4.53125,-3.978416 -1.37246,-1.53261 -2.60096,-3.27258 -3.65625,-5.27299 -0.90127,-1.75926 -1.53146,-3.23605 -1.875,-4.54677 -2.76848,-9.17122 -1.23691,-2.56793 -1.25,-7.95685 -0.23356,-0.21247 0.1072,-1.90278 0.6875,-3.85213 0.5803,-1.94934 1.39809,-4.1431 2.03125,-5.27299 0.69409,-1.23861 2.4991,-4.09849 4.03125,-6.34654 l 2.78125,-4.07314 c 3.22114,-3.83414 4.14649,-4.85578 13.40625,-9.59875 z"
           id="path4843"
           sodipodi:nodetypes="cssssssssssssssssssscsssssscccssccc" />
        <path
           inkscape:connector-curvature="0"
           id="path4845"
           d="m 66.33571,69.564104 c 3.55394,-4.76708 6.7663,-7.60923 7.27625,-11.52673 -13.174653,-47.53064 -5.262794,-65.0647843 24.483835,-64.3832013 0.26104,-0.2143 1.411035,1.9215803 0.256135,0.03001 -3.0813,-5.0467897 -5.674055,-7.6889587 3.49805,-3.8565997 1.35456,0.565972 2.64625,1.3090997 3.0114,1.3181697 0.36515,0.009 0.96316,-1.05342 1.32891,-2.3610897 0.50536,-1.80686 0.94146,-2.37759 1.81675,-2.37759 1.27914,0 2.65142,1.61406 3.25674,3.8305497 0.38595,1.41323 1.62602,1.94079 2.28965,0.97408 0.49651,-0.72327 7.96497,-3.6740237 10.23054,-2.8397087 1.78634,0.657835 -2.21691,2.7867187 -3.20489,4.6611287 -0.51441,0.97596 -0.78295,1.99639 -0.59675,2.26763 6.54933,-2.0136814 13.84788,0.2273729 20.045,2.8203885 5.93581,3.064197 12.91799,11.0249585 14.16046,24.2139018 -0.19872,2.57512 -1.37984,8.09735 -2.76864,12.94464 -1.47374,5.143741 -2.4538,9.798281 -2.50312,11.887931 -0.0762,3.22649 0.11906,3.76996 3.22637,8.98199 5.9017,9.89914 7.08524,16.34888 4.60532,25.09675 -3.16886,11.17809 -10.06959,18.50268 -22.37854,23.753026 -7.74707,3.3045 -12.2534,4.07241 -25.69065,4.37781 -12.21582,-0.36954 -24.43666,-0.65874 -36.13048,-9.380186 -9.30487,-9.66132 -9.93276,-19.79317 -6.21234,-30.4329 z m 47.15068,36.753986 c 8.67453,-0.67193 13.19728,-1.81577 19.8259,-5.01413 10.84181,-5.231216 16.32815,-11.232856 19.35828,-21.176456 0.9871,-3.23926 1.19802,-5.15335 1.01642,-9.22389 -0.21986,-4.92816 -0.34738,-5.34744 -3.14515,-10.34147 -2.47226,-4.41299 -3.44806,-5.58744 -6.41237,-7.71783 -6.37065,-4.57845 -14.84544,-6.34059 -30.83552,-6.41155 -14.20614,-0.063 -21.44224,1.56639 -30.00148,6.75577 -2.03934,1.23643 -3.23731,1.68659 -3.39011,1.27389 -0.63338,-1.71068 9.19362,-6.95576 16.07892,-8.582 13.22443,-3.12348 35.12133,-1.85104 44.89764,2.60902 1.67693,0.76504 3.13611,1.31253 3.24261,1.21665 0.1065,-0.0959 -0.0697,-1.2861 -0.39166,-2.64493 -0.3219,-1.35884 -0.48792,-3.25788 -0.36893,-4.22011 l 0.21636,-1.7495 0.95338,1.84924 c 0.62423,1.21078 1.04385,1.57561 1.21542,1.0567 5.57052,-17.175286 11.2951,-29.556327 -5.60076,-40.8916806 -4.5197,-2.4786 -8.46271,-6.3039158 -15.57026,-5.8778757 -4.96684,0.2977216 -7.24956,1.0079084 -8.95575,0.2423553 -0.43308,-0.1943195 -0.13935,-1.44676 0.3261,-2.44966 0.69406,-1.4955 0.69119,-1.74498 -0.0201,-1.74498 -0.45646,0 -1.71144,0.6968 -2.78884,1.54845 -2.12521,1.6799 -3.12963,1.54884 -3.45131,-0.45036 -0.31218,-1.94004 -1.67306,-2.03488 -1.67306,-0.11659 0,2.38253 -0.91551,2.46996 -3.66635,0.35012 -2.84843,-2.19503 -5.256835,-5.65465 -3.53111,-2.6092303 2.07266,3.65764 1.52315,5.1782496 -3.757285,5.0614 C 78.793958,-3.3447046 72.08537,8.3040968 71.034313,22.409604 c -0.227531,3.053535 -0.07823,5.135228 -0.268703,8.694109 0.0329,6.926161 0.14654,7.632431 1.98793,12.355431 1.18718,3.045 2.24494,7.1563 2.69744,10.48438 l 0.7444,5.47503 -2.78572,4.04532 c -1.53215,2.22492 -3.35363,5.0483 -4.04772,6.27417 -1.26633,2.23654 -3.18791,8.62515 -2.72079,9.0457 -0.13463,6.07297 1.40692,8.27451 3.13818,12.35964 8.44228,15.838636 27.96258,15.930896 43.70706,15.174706 z M 98.50936,69.082274 c -0.9482,-1.87356 0.0217,-4.91336 1.98657,-6.22613 1.4969,-1.00011 1.65951,-1.0091 3.08107,-0.17053 1.86943,1.10276 2.00485,3.54441 0.33346,6.01236 -1.51557,2.23787 -4.36057,2.4403 -5.4011,0.3843 z m 35.46872,-0.3843 c -1.3529,-1.52242 -1.39224,-3.09361 -0.13595,-5.42999 0.97482,-1.81291 1.59484,-2.36321 2.66267,-2.36321 2.20522,0 3.93867,2.03011 3.56107,4.1705 -0.57087,3.23596 -4.40429,5.51714 -6.08779,3.6227 z M 97.44846,31.845383 c -1.47886,-1.33139 -1.63574,-6.03963 -0.26016,-7.80772 2.84899,-3.66194 6.38675,1.70716 4.33153,6.57378 -1.03922,2.46081 -2.28817,2.83934 -4.07137,1.23394 z m 23.75147,-2.47476 c -2.19422,-3.0149 -1.6269,-8.09229 0.90419,-8.09229 1.53224,0 2.84129,1.92983 3.28472,4.84241 0.64213,4.21771 -1.99531,6.26391 -4.18891,3.24988 z"
           style="fill:#000000"
           sodipodi:nodetypes="cccssssssssscccsssssccccsssssssssssscccccssssssssssscscccsccccsssccsssccssccssc" />
      </g>
      <g
         transform="matrix(1.2609352,-0.19271712,0.16827636,1.2609352,-137.04437,61.835477)"
         id="g5148"
         style="stroke-width:1.99756539;stroke-miterlimit:4;stroke-dasharray:none">
        <path
           inkscape:connector-curvature="0"
           style="fill:#ffdcac;fill-opacity:1;stroke:#000000;stroke-width:1.99756539;stroke-linecap:butt;stroke-linejoin:miter;stroke-miterlimit:4;stroke-opacity:1;stroke-dasharray:none"
           d="m 425.55544,56.610671 c 5.18916,-0.933518 1.98049,13.881204 10.78756,20.395266 8.34052,6.16897 16.48847,4.516351 13.83585,11.326715 -2.98653,7.667639 -15.87975,1.307856 -23.64701,-9.396111 -2.76466,-6.194955 -3.33518,-21.644336 -0.9764,-22.32587 z"
           id="path5117"
           sodipodi:nodetypes="csscc" />
      </g>
      <path
         inkscape:connector-curvature="0"
         inkscape:transform-center-y="0.13472891"
         inkscape:transform-center-x="7.5678745"
         style="fill:#ffdcac;fill-opacity:1;stroke:#000000;stroke-width:2.54435849;stroke-linecap:butt;stroke-linejoin:miter;stroke-miterlimit:4;stroke-opacity:1;stroke-dasharray:none"
         d="m 519.46914,50.109338 c -6.57095,-1.759571 -0.27691,13.497186 -10.94955,22.82778 -9.26176,8.097129 -24.73329,4.321757 -20.51275,12.676901 5.15154,10.198213 22.13458,2.616007 31.23375,-9.498651 4.13327,-7.650676 3.19112,-24.876147 0.22855,-26.00603 z"
         id="path5195"
         sodipodi:nodetypes="csscc" />
    </g>
    <g
       id="g4933"
       transform="matrix(1.7332738,0,0,1.6196403,50.841638,515.75736)">
      <path
         inkscape:connector-curvature="0"
         sodipodi:nodetypes="cssssccsssssssssssscc"
         id="path4841"
         d="m 248.80322,-40.029276 c -2.59752,-0.0013 -5.26815,0.343585 -7.96444,1.057713 -2.69631,0.714116 -5.40709,0.566762 -8.06527,1.926909 -2.65819,1.360133 -5.27966,3.027009 -7.76282,4.96311 -2.48317,1.936089 -5.33532,3.803912 -7.50656,6.24592 -1.37208,1.543204 -3.0914,3.151448 -3.40253,3.151448 -5.19676,3.605482 -7.51149,13.3380209 9.83366,12.611182 0.26801,-0.349168 0.68723,-0.60781 1.2434,-0.813627 0.55617,-0.205813 1.25141,-0.354048 2.15073,-0.488174 2.26972,-0.338506 5.99907,-1.508408 9.87996,-3.010411 3.88089,-1.502004 7.92568,-3.328674 10.75369,-4.96311 3.21986,-1.860924 5.79466,-3.595702 7.86363,-5.288561 2.06896,-1.692874 3.61104,-3.34845 4.73834,-5.044473 0.59714,-0.898385 1.06603,-1.755254 1.37782,-2.562916 0.31178,-0.807679 0.47142,-1.567331 0.50408,-2.27815 0.0327,-0.710834 -0.0622,-1.34485 -0.30244,-1.9527 -0.24025,-0.607862 -0.60207,0.03637 -1.10898,-0.462385 -0.50692,-0.498759 -1.14813,-0.958944 -1.9155,-1.342481 -0.76737,-0.38355 -1.66683,-0.714154 -2.68842,-0.976349 -2.04319,-0.524391 -4.60567,-0.770691 -7.6284,-0.772945 l 5e-5,0 z"
         style="fill:#ffffff;fill-opacity:1;fill-rule:evenodd;stroke:none" />
      <path
         inkscape:connector-curvature="0"
         id="path4849"
         d="m 245.13872,-31.071831 c 1.78011,-0.0458 3.24985,0.18024 3.375,0.5 0.12151,0.31045 -0.38315,1.37778 -1.125,2.375 -0.39148,0.52625 -1.08321,1.10447 -2,1.71875 -0.91679,0.61429 -2.07009,1.25471 -3.34375,1.875 -2.54733,1.2406 -5.6295,2.41503 -8.59375,3.1875 -2.88247,0.75116 -5.08236,1.22619 -6.5625,1.375 -0.74007,0.0744 -1.3126,0.0464 -1.6875,-0.0312 -0.3749,-0.0777 -0.5625,-0.20681 -0.5625,-0.4375 0,-0.33386 0.33635,-0.83249 0.9375,-1.40625 0.60115,-0.57375 1.4769,-1.22396 2.53125,-1.9375 2.10869,-1.42706 4.96619,-3.05209 8,-4.4375 2.35315,-1.07458 3.98681,-1.73994 5.34375,-2.15625 1.35694,-0.41631 2.43279,-0.5927 3.6875,-0.625 z"
         style="fill:#ffaaaa;fill-opacity:1;fill-rule:evenodd;stroke:none" />
      <path
         inkscape:connector-curvature="0"
         sodipodi:nodetypes="cssssccssscccssssccsssssc"
         style="fill:#000000"
         d="m 226.59657,-13.607105 c 4.22129,-0.52006 15.49952,-4.715667 20.75912,-7.226707 5.98841,-2.85899 9.64177,-5.32829 11.73835,-7.93395 4.44226,-5.5209 0.3006,-8.88709 -10.94294,-8.89402 -9.66186,-0.006 -20.56786,4.60377 -28.64411,12.10723 -1.27592,1.18544 -2.55657,2.15534 -2.84589,2.15534 -3.43376,-0.878977 0.29047,-3.710189 2.55644,-5.58765 10.32863,-9.64804 26.04336,-13.99234 37.841,-10.46107 3.31299,0.99165 4.73282,1.95302 5.90929,4.00122 2.02542,3.52618 -0.0256,8.30356 -5.17243,12.04759 -5.50553,4.00502 -22.61505,10.967054 -29.82079,12.178834 -2.33121,1.356877 -3.99482,-1.447851 -1.37804,-2.386817 z m -3.44925,-4.550907 c -3.40863,-1.78738 2.94683,-7.84186 12.76252,-12.1581 7.35781,-3.23545 12.17406,-3.97882 13.99534,-2.16013 1.44211,1.44006 0.8574,3.80055 -1.55385,6.27298 -3.25562,3.33824 -9.56395,6.1631 -17.42799,7.80423 -4.44581,0.92779 -6.35356,0.98693 -7.77602,0.24102 z m 10.1235,-3.17292 c 5.9285,-1.54495 12.37058,-4.68237 13.93652,-6.78736 0.74185,-0.99722 1.2494,-2.06713 1.12789,-2.37758 -0.12515,-0.31976 -1.58315,-0.52938 -3.36326,-0.48355 -2.50941,0.0646 -4.32933,0.62296 -9.03562,2.77212 -6.06761,2.77082 -11.46858,6.42593 -11.46858,7.76138 0,0.92275 3.0381,0.61731 8.80305,-0.88501 z"
         id="path4639" />
    </g>
    <g
       id="g4928"
       transform="matrix(1.7332738,0,0,1.6196403,177.65895,465.13928)">
      <path
         inkscape:connector-curvature="0"
         style="fill:#ffffff;fill-opacity:1;fill-rule:evenodd;stroke:none"
         d="m 81.044686,7.1933507 c -0.33394,0 -3.241172,-1.826861 -6.461874,-4.052702 -3.482686,-2.40690501 -7.067217,-4.540236 -10.508704,-6.2816873 -3.441487,-1.7414622 -6.745966,-3.1048343 -9.69281,-3.9513842 -1.729297,-0.4967856 -3.489057,-0.8387904 -5.156445,-1.046948 -1.667388,-0.2081684 -3.236085,-0.2743409 -4.666909,-0.202635 -1.430823,0.071652 -2.70087,0.265079 -3.720472,0.6079051 -1.019603,0.3428154 -1.785493,0.8470256 -2.21923,1.4522182 -0.404328,0.5641469 -0.531926,1.5555458 -0.391628,2.7355737 0.140296,1.1800279 0.5186,2.5356728 1.14225,3.81629349 0.413612,0.84931701 1.166897,1.87564401 2.121322,2.97198201 0.954425,1.096336 2.135943,2.276191 3.36148,3.377251 1.225537,1.10106 2.493516,2.14228 3.720473,3.005754 1.226957,0.8634733 2.402793,1.5414423 3.361479,1.9250333 2.389228,0.955984 6.784284,2.303793 10.867697,3.411024 4.083413,1.107231 7.852323,1.978659 9.040096,1.992579 1.151535,0.01351 2.030516,-0.0055 2.676129,0.135089 -1.568907,0.308139 16.493859,3.83149 6.527146,-9.8953463 z"
         id="path4926"
         sodipodi:nodetypes="cssssssssssssssscc" />
      <path
         inkscape:connector-curvature="0"
         id="path4847"
         d="m 54.481574,0.80786769 c 1.26798,-0.0242 3.02312,0.25616001 4.9375,0.81250001 1.65971,0.48233 3.59669,1.23617 5.53125,2.125 1.93456,0.88883 3.86898,1.91338 5.5625,2.90625 1.69352,0.99287 3.12592,1.95554 4.0625,2.75 0.46829,0.39723 0.81767,0.7403403 1,1.0312503 0.18233,0.29091 0.19937,0.54071 0.0312,0.6875 -0.47108,0.41132 -1.1867,0.66619 -1.9375,0.78125 -0.7508,0.11506 -1.52242,0.0858 -2.15625,-0.15625 -0.64556,-0.24647 -3.68425,-1.12149 -6.75,-1.9375003 -2.55367,-0.67971 -4.0376,-1.10989 -5.25,-1.71875 -1.2124,-0.60886 -2.17224,-1.40186 -3.71875,-2.78125 -1.85662,-1.656 -3.375,-3.25779 -3.375,-3.5625 0,-0.2964 0.20666,-0.53252 0.5625,-0.6875 0.35584,-0.15498001 0.86601,-0.23792001 1.5,-0.25000001 z"
         style="fill:#e9afaf;fill-opacity:1;fill-rule:evenodd;stroke:none" />
      <path
         inkscape:connector-curvature="0"
         id="path4924"
         d="m 73.720591,18.762119 -4.38701,-0.65901 c -10.68107,-1.6045 -20.844249,-5.62053 -25.745039,-10.1732903 -4.0417,-3.75467 -5.91941,-6.68313 -6.33447,-9.8791696 -0.27141,-2.0899 -0.10785,-2.81999 0.88487,-3.94975 1.7726,-2.0173 4.77076,-3.10505 8.55847,-3.10505 8.08432,0 16.758759,3.21198 26.914889,9.96606959 0.42626,0.42186001 11.14651,5.52947001 6.855,6.41286001 -0.31976,0 -3.10462,-1.68513 -6.18857,-3.74472 -6.66962,-4.45424961 -13.69454,-7.8893296 -19.33798,-9.4559796 -6.623499,-1.83871 -13.441629,-1.50851 -15.102919,0.73142 -0.77432,1.04402 -0.44697,3.70461 0.74738,6.07453959 1.58419,3.14350001 8.34417,9.01239001 12.01608,10.43215031 4.575549,1.76916 16.790569,4.9698 19.065249,4.99557 4.66911,0.30665 5.50295,1.07354 2.05405,2.35436 z m -9.40148,-7.05589 C 57.118941,9.2147687 52.669112,6.5147387 50.460232,3.2970687 c -1.36315,-1.9857 -1.04569,-3.62269961 0.8051,-4.15153961 2.23314,-0.63809999 6.721369,-0.27085999 9.930799,0.8125496 7.22986,2.44061001 16.33911,8.34035001 16.33911,10.58229031 0,2.91706 -6.49858,3.49033 -13.21613,1.16586 z m 11.16209,-0.73582 c 1.34496,-1.1743503 -9.55624,-7.5654703 -16.19509,-9.4947903 -3.82875,-1.11268001 -6.986279,-1.05253001 -6.986279,0.13308 0,0.30471 1.51906,1.90893 3.375679,3.56493 3.09301,2.75878 3.84244,3.13514 8.94977,4.49455 3.06575,0.8160103 6.10227,1.6853103 6.74783,1.9317803 1.26766,0.48399 3.16593,0.19309 4.10809,-0.62955 z"
         style="fill:#000000"
         sodipodi:nodetypes="ccssssccssssscccssssccsssssc" />
    </g>
  </g>
</svg>
