<?xml version="1.0" encoding="UTF-8" standalone="no"?>
<!-- Created with Inkscape (http://www.inkscape.org/) -->

<svg
   xmlns:dc="http://purl.org/dc/elements/1.1/"
   xmlns:cc="http://creativecommons.org/ns#"
   xmlns:rdf="http://www.w3.org/1999/02/22-rdf-syntax-ns#"
   xmlns:svg="http://www.w3.org/2000/svg"
   xmlns="http://www.w3.org/2000/svg"
   xmlns:sodipodi="http://sodipodi.sourceforge.net/DTD/sodipodi-0.dtd"
   xmlns:inkscape="http://www.inkscape.org/namespaces/inkscape"
   preserveAspectRatio="xMinYMin meet"
  viewBox="0 0 415 319.78"
   width="415"
   height="319.78"
   id="svg2"
   version="1.1"
   inkscape:version="0.47 r22583"
   sodipodi:docname="krowaN.svg">
  <defs
     id="defs4">
    <inkscape:perspective
       sodipodi:type="inkscape:persp3d"
       inkscape:vp_x="0 : 526.18109 : 1"
       inkscape:vp_y="0 : 1000 : 0"
       inkscape:vp_z="744.09448 : 526.18109 : 1"
       inkscape:persp3d-origin="372.04724 : 350.78739 : 1"
       id="perspective10" />
    <inkscape:perspective
       id="perspective3076"
       inkscape:persp3d-origin="0.5 : 0.33333333 : 1"
       inkscape:vp_z="1 : 0.5 : 1"
       inkscape:vp_y="0 : 1000 : 0"
       inkscape:vp_x="0 : 0.5 : 1"
       sodipodi:type="inkscape:persp3d" />
    <inkscape:perspective
       id="perspective3110"
       inkscape:persp3d-origin="0.5 : 0.33333333 : 1"
       inkscape:vp_z="1 : 0.5 : 1"
       inkscape:vp_y="0 : 1000 : 0"
       inkscape:vp_x="0 : 0.5 : 1"
       sodipodi:type="inkscape:persp3d" />
    <inkscape:perspective
       id="perspective3904"
       inkscape:persp3d-origin="0.5 : 0.33333333 : 1"
       inkscape:vp_z="1 : 0.5 : 1"
       inkscape:vp_y="0 : 1000 : 0"
       inkscape:vp_x="0 : 0.5 : 1"
       sodipodi:type="inkscape:persp3d" />
    <inkscape:perspective
       id="perspective4228"
       inkscape:persp3d-origin="0.5 : 0.33333333 : 1"
       inkscape:vp_z="1 : 0.5 : 1"
       inkscape:vp_y="0 : 1000 : 0"
       inkscape:vp_x="0 : 0.5 : 1"
       sodipodi:type="inkscape:persp3d" />
  </defs>
  <sodipodi:namedview
     id="base"
     pagecolor="#ffffff"
     bordercolor="#666666"
     borderopacity="1.0"
     inkscape:pageopacity="0.0"
     inkscape:pageshadow="2"
     inkscape:zoom="0.80993747"
     inkscape:cx="217.93364"
     inkscape:cy="159.88889"
     inkscape:document-units="px"
     inkscape:current-layer="layer1"
     showgrid="false"
     inkscape:window-width="1280"
     inkscape:window-height="773"
     inkscape:window-x="0"
     inkscape:window-y="1"
     inkscape:window-maximized="1"
     inkscape:snap-page="true"
     inkscape:snap-nodes="false"
     showguides="true"
     inkscape:guide-bbox="true" />
  <metadata
     id="metadata7">
    <rdf:RDF>
      <cc:Work
         rdf:about="">
        <dc:format>image/svg+xml</dc:format>
        <dc:type
           rdf:resource="http://purl.org/dc/dcmitype/StillImage" />
        <dc:title />
      </cc:Work>
    </rdf:RDF>
  </metadata>
  <g
     inkscape:label="Layer 1"
     inkscape:groupmode="layer"
     id="layer1"
     transform="translate(-14.144884,37.999164)">
    <g
       transform="matrix(0.94734607,0,0,0.94734607,68.243404,-533.94569)"
       id="g4185">
      <g
         style="fill:#000000"
         id="g4149"
         transform="matrix(0,-1.7096607,-1.82961,0,203.87257,1206.4504)">
        <path
           sodipodi:nodetypes="ccccccccccccccscc"
           id="path4110"
           d="m 348.2329,99.149577 c -16.04795,3.156673 -23.59249,20.197433 -38.09375,25.406243 -6.92691,-2.43226 -12.47097,-8.20538 -20.5625,-8.90625 -1.67331,-0.10882 -3.14423,0.70733 -4.59375,1.34375 -2.23633,-0.006 -4.40538,-0.17053 -6.625,0.0938 -1.32281,0.72917 -1.33804,1.94939 -1.59375,3.21875 -1.50677,0.21401 -3.00179,0.31608 -4.46875,0.6875 -0.56089,0.76709 -0.90056,1.92506 -1.15625,2.75 -2.06442,-0.45187 -3.38649,0.51192 -4.875,1.3437 -2.2098,-0.15086 -3.59316,-2.06662 -5.9375,-2.31255 -0.26764,0.11308 -0.47097,0.30569 -0.59375,0.59375 0.81385,12.04299 14.45386,18.67513 26.0625,19.21875 10.52929,0.69921 16.53052,-5.49453 24.25,-10.78125 14.65394,-6.66891 32.36188,-16.99915 39.375,-31.49999 0.0848,-0.421273 0.0207,-0.715663 -0.1875,-0.906253 -0.20819,-0.19059 -0.53145,-0.27618 -1,-0.25 l 0,5e-5 z"
           style="fill:#000000;fill-opacity:1;fill-rule:evenodd;stroke:none" />
      </g>
      <path
         sodipodi:nodetypes="csssc"
         transform="matrix(2.9789781,0,0,2.9789781,-95.576572,466.04528)"
         id="path4113"
         d="m 35.196278,51.864485 c -7.189484,4.614146 -12.844924,15.685237 -13.735133,17.920056 -0.231542,0.581276 1.360763,0.963563 1.50228,0.214611 0.763608,-4.041254 9.120986,-12.554769 12.232853,-15.237413 1.602982,-1.381881 0.321917,-2.897254 0,-2.897254 z"
         style="fill:#ffffff;stroke:none" />
      <g
         id="g4079"
         transform="matrix(1.82961,0,0,1.7096607,-268.05268,252.34724)">
        <path
           sodipodi:nodetypes="cccssssssssssssssscccsscccssssscccscccssssscccccccccsccssccssssccccccssccccccssscccccsssccccsccccscc"
           id="path4046"
           d="m 188.8806,181.79404 c -9.37251,1.65441 -17.08152,6.85153 -24.21875,12.84376 -20.33264,17.90598 -13.22987,45.23087 -13.09375,69.34374 -0.0714,8.45608 -0.62012,16.60985 -1.65625,24.4375 -0.63198,4.77441 -3.75892,18.18441 -6.21875,26.71875 -1.5968,5.5401 -2.90625,10.70525 -2.90625,11.5 0,4.50658 13.83766,17.46002 14.96875,7.0625 0.7667,-7.04789 1.50771,-3.23356 2.7075,0.0493 2.71959,7.44128 14.1522,-1.66336 14.01125,-3.89306 -0.0917,-1.45013 -3.24756,-8.07392 2.35598,-1.28125 2.68413,3.25374 7.96004,-1.46973 11.01902,-3.53125 1.76271,-1.18793 1.90925,-1.52967 1.90625,-4.3125 -0.003,-2.87429 -0.67046,-6.7977 -3.53125,-20.96875 -0.91748,-4.54481 -1.37081,-9.36187 -1.59375,-17.03125 -0.34616,-11.90876 -0.48436,-11.51455 3.625,-9.96875 1.08884,0.40958 3.42235,1.03925 5.21875,1.375 3.06721,0.57326 3.31091,0.73406 3.875,2.5625 1.51338,4.90558 0.0168,21.41596 -3.21875,35.46875 -1.89944,8.24975 -3.58892,13.74381 -7.6875,25.03125 l -3.21875,8.875 1.25,2.34375 c 2.81176,4.07072 12.43385,10.07065 13.59268,5.42208 2.51834,-10.10216 1.92793,-9.62158 3.47876,-0.54797 0.88826,5.19706 11.33882,-0.82056 15.14731,-3.28036 l 1.4375,-1.375 -0.6875,-7.28125 c -0.38147,-3.99204 -0.96483,-9.144 -1.28125,-11.46875 -0.59704,-4.38642 -2.66784,-26.4499 -3.28125,-35 -0.19312,-2.6915 -0.13655,-7.89115 0.0937,-11.53125 0.3651,-5.76957 0.54574,-6.68142 1.53125,-7.15625 1.72426,-0.83083 11.56122,-3.25102 11.9375,0.0312 0.50505,4.40546 0.74818,3.30303 2.09375,8.78125 l 1.25,13.9375 0.625,4.90625 c 0.74892,6.03024 -0.13905,16.29222 -2.1875,25.5 -0.77578,3.48713 -1.85182,8.65211 -2.40625,11.5 l -1,5.1875 1.34375,1.3125 c 1.98221,1.89958 12.19665,7.9082 12.84814,2.81837 1.54785,-12.09266 1.37276,-6.53475 2.57908,-0.17221 0.91393,4.82041 9.96477,-1.66162 11.97903,-3.61491 0.67118,-0.65087 1.38622,-2.25483 1.59375,-3.5625 0.61216,-3.8575 -0.7347,-19.27439 -2.34375,-26.6875 -0.81998,-3.77772 -1.65985,-7.72881 -1.84375,-8.78125 l -0.34375,-1.90625 -8.25,-36.125 c 11.56569,-6.29373 34.17479,-18.45724 32.59375,-36 -6.98599,-39.5735 -47.94472,-54.2669 -84.0937,-51.53119 z m 37.90625,6.75001 c 24.67792,10.2096 40.473,26.73376 41.6875,43.68749 -0.003,15.40267 -15.57955,28.65722 -30.40625,34.34375 -7.82931,1.83462 -12.16606,1.65753 -25.6875,6.375 -2.49871,0.32374 -3.33069,0.67334 -3.875,1.65625 -1.8728,3.38191 -1.54233,21.66891 0.75,40.375 0.58148,8.12719 1.82909,15.40156 0.37901,22 -5.54071,1.38372 -18.08362,1.06953 -20.03526,-0.6875 -0.85518,-0.76991 -0.80028,-1.21764 0.4375,-4.96875 0.74418,-2.25524 1.97525,-6.46906 2.75,-9.375 4.28916,-12.53125 5.01978,-25.0625 6.40625,-37.59375 -0.0372,-4.48842 -0.31909,-7.0152 -1.0625,-8.96875 -1.13283,-2.97689 -1.18128,-3.00805 -8.34375,-4.90625 -8.01839,-2.12505 -18.42781,-8.49969 -24.15625,-14.8125 -1.84912,-2.03776 -3.59009,-3.71875 -3.84375,-3.71875 -0.81812,0 -0.48162,1.08215 1.03125,3.40625 l 1.46875,2.28125 -0.5,12.34375 c -0.68025,16.45611 0.15538,34.0858 1.96875,41.3125 l 0.78125,3.0625 -1.875,1.03125 c -2.71051,1.484 -7.26648,2.2392 -11.96875,2 -6.17678,-0.31422 -6.14414,-0.27419 -4.15625,-8.09375 0.92321,-3.63153 2.27977,-9.75049 3,-13.59375 l 1.28125,-7 1.84375,-30.03125 c -0.22072,-6.46165 -0.6363,-17.08664 -0.9375,-23.625 -1.98896,-44.66061 36.3166,-59.82284 73.0625,-46.49999 z m -58.65625,74.49999 c 0.43112,0 1.06117,0.44082 1.375,0.96875 0.61158,1.02881 -0.41618,3.52679 -0.5625,21.1875 -0.3259,39.33563 -1.94,25.7626 -2.375,-2.875 -0.21425,-14.10483 0.34524,-19.28125 1.5625,-19.28125 z m 69.72859,7.29699 0.99016,3.64051 6.84375,35.28125 c 3.38008,16.68643 5.65317,17.2897 3.5625,22.40625 -0.14883,1.15481 -0.70769,1.54358 -3.40625,2.375 -4.55563,1.40356 -15.29243,1.8306 -16.375,0.65625 -0.65075,-0.70592 -0.52836,-2.45017 0.75,-10.78125 0.84058,-5.47808 1.53125,-11.09198 1.53125,-12.46875 0.80102,-8.51325 -2.23525,-29.56352 -4.3209,-38.12356 2.91104,-1.21702 7.0692,-3.12262 10.42449,-2.9857 z m -57.85359,41.60926 c 0,0 -7.47201,0.80181 -8.84375,0.4375 -1.25313,-0.3328 -1.22503,0.78242 -0.0937,-12.875 1.49999,-9.269 -0.99287,-25.88661 2.56245,-33.4375 0.0276,-0.0279 0.066,-0.026 0.125,-0.0312 l 0,-5e-5 c 0.88496,-0.078 5.05703,2.26005 5.34375,3.0625 0.1085,0.30364 0.0551,2.21584 -0.125,4.25 1.09171,12.85871 4.67377,37.70705 1.03125,38.59375 z"
           style="fill:#000000;stroke:#000000;stroke-opacity:1" />
        <path
           id="path4069"
           d="m 237.53142,270.7829 1,3.625 6.84375,35.2812 c 0.84502,4.1716 1.59424,7.3295 2.25,9.8125 0.65576,2.483 1.19778,4.2807 1.5625,5.7188 0.36472,1.438 0.55933,2.5257 0.53125,3.5625 -0.0281,1.0368 -0.25858,2.0333 -0.78125,3.3125 -0.0744,0.5774 -0.25436,0.967 -0.75,1.3125 -0.49564,0.3454 -1.30697,0.6467 -2.65625,1.0625 -1.13891,0.3508 -2.67962,0.6559 -4.34375,0.875 -1.66413,0.219 -3.46176,0.3385 -5.15625,0.4062 -1.69449,0.068 -3.27001,0.072 -4.5,-0.031 -1.22999,-0.1032 -2.10436,-0.3002 -2.375,-0.5938 -0.32538,-0.353 -0.48405,-0.9656 -0.375,-2.5312 0.10905,-1.5657 0.48582,-4.0845 1.125,-8.25 0.84058,-5.4781 1.53125,-11.092 1.53125,-12.4688 0.20025,-2.1283 0.1421,-5.0394 -0.0625,-8.3437 -0.2046,-3.3044 -0.57143,-6.9892 -1.03125,-10.6875 -0.91965,-7.3968 -2.20717,-14.8138 -3.25,-19.0938 1.45552,-0.6085 3.23967,-1.3886 5.0625,-2 0.91142,-0.3057 1.84285,-0.5716 2.75,-0.75 0.90715,-0.1784 1.78618,-0.253 2.625,-0.2187 z"
           style="fill:#ffffff;fill-opacity:1;fill-rule:evenodd;stroke:none" />
        <path
           id="path4073"
           d="m 246.30623,320.48841 c -0.0382,-0.26425 -0.0966,-0.54298 -0.17036,-0.82321 -2.36001,-8.96754 -1.34341,-2.60097 -1.9327,-8.70198 -16.69367,-8.88362 -10.92099,8.46699 -10.80954,13.39953 -1.20031,4.85727 14.10071,4.31726 12.9126,-3.87434 z"
           style="fill:#000000;stroke:#000000;stroke-width:0.41851524;stroke-opacity:1"
           sodipodi:nodetypes="csccc" />
        <path
           id="path4067"
           d="m 173.49001,266.20204 c -0.059,0.01 -0.0974,0 -0.125,0.031 -0.44442,0.9439 -0.81873,2.0236 -1.09375,3.2188 -0.27502,1.1951 -0.48015,2.4927 -0.625,3.875 -0.2897,2.7645 -0.3394,5.8403 -0.34375,8.9687 -0.004,3.1284 0.064,6.3332 0.0312,9.3125 -0.0328,2.9793 -0.15625,5.7453 -0.53125,8.0625 -0.56566,6.8287 -0.8832,9.9675 -0.875,11.4375 0.004,0.735 0.0941,1.0631 0.25,1.2188 0.15591,0.1556 0.40547,0.1355 0.71875,0.2187 0.68587,0.1822 2.86678,0.061 4.90625,-0.094 2.03947,-0.1549 3.9375,-0.3437 3.9375,-0.3437 0.45532,-0.1109 0.78273,-0.5856 1.03125,-1.375 0.24852,-0.7895 0.38907,-1.8912 0.46875,-3.2188 0.15935,-2.6551 0.0383,-6.2536 -0.25,-10.2187 -0.57666,-7.9303 -1.73539,-17.3519 -2.28125,-23.7813 0.1801,-2.0342 0.2335,-3.9464 0.125,-4.25 -0.14336,-0.4012 -1.27927,-1.1999 -2.46875,-1.875 -1.18948,-0.6751 -2.43252,-1.2265 -2.875,-1.1875 z"
           style="fill:#ffffff;fill-opacity:1;fill-rule:evenodd;stroke:none" />
        <path
           id="path4059"
           d="m 199.63922,183.91915 c -2.18187,0.0614 -4.33541,0.21379 -6.4375,0.5 -2.10209,0.28621 -4.15438,0.70728 -6.15625,1.21875 -2.00187,0.51147 -3.93128,1.13778 -5.8125,1.875 -1.88122,0.73722 -3.69737,1.56778 -5.4375,2.53125 -1.74013,0.96347 -3.4214,2.05978 -5,3.25 -1.5786,1.19022 -3.07211,2.48879 -4.46875,3.90625 -1.39664,1.41746 -2.68076,2.94856 -3.875,4.59375 -1.19424,1.64519 -2.2786,3.40783 -3.25,5.28125 -0.9714,1.87342 -1.83437,3.83535 -2.5625,5.9375 -0.72813,2.10215 -1.34808,4.32488 -1.8125,6.65625 -0.46442,2.33137 -0.78848,4.78267 -0.96875,7.34375 -0.18027,2.56108 -0.18681,5.23996 -0.0625,8.03125 0.3012,6.53836 0.71678,17.16335 0.9375,23.625 l -1.84375,30.03125 -1.28125,7 c -0.72023,3.84326 -2.07679,9.96222 -3,13.59375 -0.49697,1.95489 -0.87641,3.43047 -1.0625,4.53125 -0.18609,1.10078 -0.19523,1.84039 0.0625,2.34375 0.25773,0.50336 0.75926,0.74364 1.59375,0.90625 0.83449,0.16261 2.0183,0.23394 3.5625,0.3125 2.35113,0.1196 4.65316,6.5e-4 6.71875,-0.34375 2.06559,-0.3444 3.89475,-0.91425 5.25,-1.65625 l 1.875,-1.03125 -0.78125,-3.0625 c -0.45334,-1.80668 -0.86478,-4.26134 -1.1875,-7.1875 -0.32272,-2.92616 -0.57473,-6.31611 -0.75,-10 -0.17527,-3.68389 -0.27024,-7.67016 -0.28125,-11.75 -0.011,-4.07984 0.0799,-8.26097 0.25,-12.375 l 0.5,-12.34375 -1.46875,-2.28125 c -0.75644,-1.16205 -1.23528,-2.00145 -1.40625,-2.5625 -0.0855,-0.28053 -0.0911,-0.48723 -0.0312,-0.625 0.0599,-0.13777 0.20172,-0.21875 0.40625,-0.21875 0.25366,0 1.99463,1.68099 3.84375,3.71875 1.43211,1.5782 3.15577,3.16893 5.0625,4.6875 1.90673,1.51857 3.9959,2.95705 6.15625,4.28125 2.16035,1.3242 4.36952,2.53615 6.5625,3.53125 2.19298,0.9951 4.3704,1.78124 6.375,2.3125 3.58124,0.9491 5.35722,1.44532 6.40625,2.0625 0.52451,0.30859 0.88049,0.64254 1.15625,1.09375 0.27576,0.45121 0.49804,1.00578 0.78125,1.75 0.37171,0.97677 0.6132,2.09431 0.78125,3.53125 0.16805,1.43694 0.26265,3.19329 0.28125,5.4375 -0.69324,6.26563 -1.23289,12.51563 -2.125,18.78125 -0.44605,3.13281 -0.99418,6.27344 -1.6875,9.40625 -0.69332,3.13281 -1.52146,6.27344 -2.59375,9.40625 -0.77475,2.90594 -2.00582,7.11976 -2.75,9.375 -0.61889,1.87555 -0.9697,2.91669 -1.03125,3.59375 -0.0615,0.67706 0.16616,0.99005 0.59375,1.375 0.48791,0.43926 1.61933,0.77633 3.15625,1.03125 1.53692,0.25492 3.46386,0.43739 5.5,0.5 2.03614,0.0626 4.1707,0.0127 6.15625,-0.125 1.98555,-0.13768 3.83357,-0.37282 5.21875,-0.71875 0.36252,-1.64961 0.54713,-3.35688 0.625,-5.09375 0.0779,-1.73687 0.0392,-3.5141 -0.0625,-5.34375 -0.20333,-3.6593 -0.64676,-7.4989 -0.9375,-11.5625 -0.57308,-4.67652 -1.05092,-9.32096 -1.375,-13.71875 -0.32408,-4.39779 -0.49497,-8.55237 -0.5625,-12.21875 -0.0675,-3.66638 -0.009,-6.86148 0.1875,-9.34375 0.19656,-2.48227 0.5318,-4.24827 1,-5.09375 0.27215,-0.49145 0.59913,-0.81177 1.1875,-1.0625 0.58837,-0.25073 1.43815,-0.43188 2.6875,-0.59375 3.38036,-1.17937 6.16339,-2.04329 8.59375,-2.71875 2.43036,-0.67546 4.49848,-1.17513 6.375,-1.5625 3.75303,-0.77474 6.8041,-1.17644 10.71875,-2.09375 1.85334,-0.71082 3.71761,-1.53202 5.5625,-2.46875 1.84489,-0.93673 3.66482,-1.98353 5.4375,-3.125 1.77268,-1.14147 3.4883,-2.3937 5.125,-3.71875 1.6367,-1.32505 3.18804,-2.7313 4.625,-4.21875 1.43696,-1.48745 2.76404,-3.05882 3.9375,-4.6875 1.17346,-1.62868 2.18505,-3.31377 3.03125,-5.0625 0.8462,-1.74873 1.51358,-3.55863 1.96875,-5.40625 0.45517,-1.84762 0.71837,-3.73092 0.71875,-5.65625 -0.15181,-2.11922 -0.55992,-4.2182 -1.15625,-6.3125 -0.59633,-2.0943 -1.38766,-4.17236 -2.40625,-6.21875 -1.01859,-2.04639 -2.23766,-4.087 -3.65625,-6.0625 -1.41859,-1.9755 -3.04742,-3.89964 -4.84375,-5.78125 -1.79633,-1.88161 -3.78568,-3.70401 -5.9375,-5.46875 -2.15182,-1.76474 -4.45245,-3.46887 -6.9375,-5.09375 -2.48505,-1.62488 -5.14148,-3.16296 -7.9375,-4.625 -2.79602,-1.46204 -5.72776,-2.8488 -8.8125,-4.125 -2.29662,-0.83268 -4.60766,-1.54636 -6.90625,-2.15625 -2.29859,-0.60989 -4.59488,-1.11339 -6.875,-1.5 -2.28012,-0.38661 -4.54004,-0.64967 -6.78125,-0.8125 -2.24121,-0.16283 -4.47438,-0.21769 -6.65625,-0.15625 z"
           style="fill:#ffffff;fill-opacity:1;fill-rule:evenodd;stroke:none" />
        <path
           sodipodi:nodetypes="csssccccssssccsccsccssssssc"
           style="fill:#000000;stroke:#000000;stroke-opacity:1"
           d="m 159.2951,208.92843 c -1.27014,3.39339 -1.43671,4.6229 -1.1875,8.46875 0.37745,5.82479 2.1762,9.52288 6.71875,13.81249 6.795,6.41662 11.44973,6.87564 16.71875,1.625 2.99152,-2.9811 3.6865,-5.26656 3.6875,-11.99999 -0.19988,-7.76525 -1.81977,-16.06039 -9.1875,-20.125 -12.22874,-3.90693 -14.23561,0.47677 -16.75,8.21875 z m 71.9375,-13.96875 c -0.71486,0.0353 -1.47695,0.11067 -2.25,0.21875 -24.73744,3.45842 -7.47197,2.40834 -23.84375,2.59375 -16.37178,0.1854 -1.54571,32.73506 5,34.03124 6.54571,1.29617 12.82228,-12.1479 25.5,-8.625 12.28155,3.41282 8.5046,-24.78418 -4.40625,-28.21874 z m -1.03125,34.99999 c -4.99738,-0.15478 -10.73859,2.1592 -16.875,8.28125 -1.84387,1.83956 -3.49212,3.47869 -4.96875,4.96875 -11.99904,10.65474 7.75293,31.87065 23.25,19.59375 1.85971,-0.3992 3.97175,-0.6369 6.40625,-0.625 18.25872,0.0895 10.0353,-31.66596 -7.8125,-32.21875 z m -44.3125,11.53125 c -2.10259,0.0504 -4.25968,0.9011 -6.15625,2.46875 -1.62833,1.34591 -4.1875,6.19703 -4.1875,7.9375 0,2.0703 2.35477,4.56792 5.59375,5.9375 0.96833,0.40945 3.00928,0.7386 4.53125,0.75 5.37409,0.0402 8.6772,-4.51927 7.8125,-10.75 -0.48276,-3.47865 -2.09682,-5.29999 -5.5,-6.125 -0.67786,-0.16433 -1.39289,-0.23555 -2.09375,-0.21875 z"
           id="path4019" />
        <path
           id="path4077"
           d="m 159.72844,274.77289 c -1.3645,0.0366 -2.76438,0.65441 -3.99518,1.79291 -1.05673,0.97746 -2.71753,4.50056 -2.71753,5.76456 0,1.50355 1.52816,3.31743 3.63013,4.31208 0.62842,0.29736 1.95292,0.5364 2.94062,0.54468 3.48758,0.0292 5.63118,-3.28209 5.07002,-7.80712 -0.31329,-2.52635 -1.36076,-3.84909 -3.5693,-4.44825 -0.4399,-0.11934 -0.90393,-0.17107 -1.35876,-0.15886 z"
           style="fill:#000000;stroke:#000000;stroke-width:0.686517;stroke-opacity:1"
           sodipodi:nodetypes="cssssssc" />
      </g>
      <path
         style="font-size:medium;font-style:normal;font-variant:normal;font-weight:normal;font-stretch:normal;text-indent:0;text-align:start;text-decoration:none;line-height:normal;letter-spacing:normal;word-spacing:normal;text-transform:none;direction:ltr;block-progression:tb;writing-mode:lr-tb;text-anchor:start;color:#000000;fill:#000000;fill-opacity:1;fill-rule:nonzero;stroke:none;stroke-width:4.19999981;marker:none;visibility:visible;display:inline;overflow:visible;enable-background:accumulate;font-family:Adler;-inkscape-font-specification:Adler"
         d="m 269.66149,734.31542 c -10.02994,0.14332 -21.33236,2.00045 -33.90625,6.21875 -24.32433,-5.09948 -45.6135,4.15899 -60.90625,15.78125 -7.7096,5.85918 -13.9435,12.33119 -18.375,17.9375 -2.21575,2.80316 -3.96104,5.40165 -5.25,7.625 -1.28896,2.22335 -2.14476,3.99404 -2.4375,5.625 a 2.1002099,2.1002099 0 0 0 3.09375,2.1875 c 0,0 7.20199,-3.74208 13.75,-6.90625 -3.94468,6.68668 -5.92008,14.36241 -8.4375,24.9375 a 2.1002099,2.1002099 0 0 0 3,2.375 c 2.63227,-1.319 5.37487,-3.83531 8.5,-7 3.12513,-3.16469 6.5361,-7.00566 10,-10.84375 3.54302,-3.92575 7.21,-7.83425 10.5625,-11.09375 -0.81809,2.62547 -1.45606,5.36679 -1.90625,8.21875 -1.15245,7.30082 -1.43082,14.98382 -2.125,20.25 a 2.1002099,2.1002099 0 0 0 3.25,2 c 7.36956,-4.9704 12.68759,-16.5006 20.09375,-26.875 7.40616,-10.3744 16.31501,-19.36073 29.5,-19.9375 13.44926,-0.58832 24.49235,4.82281 34.4375,12.875 9.94515,8.05219 18.6535,18.72717 27.09375,28.34375 a 2.1002099,2.1002099 0 0 0 3.65625,-1.59375 c -0.54568,-5.29426 -3.57481,-14.77862 -6.46875,-23.3125 -1.70623,-5.03149 -2.26597,-6.43153 -3.34375,-9.375 3.54664,3.12601 7.53311,7.39427 11.8125,12.28125 6.55319,7.48361 13.79535,16.05966 21.65625,22.84375 a 2.1002099,2.1002099 0 0 0 3.46875,-1.75 c -0.64189,-9.3179 -4.79393,-19.80303 -9.65625,-28.59375 -2.251,-4.06964 -4.64521,-7.68934 -6.96875,-10.71875 7.35921,3.35867 15.70261,7.87182 21.28125,11.125 a 2.1002099,2.1002099 0 0 0 2.90625,-2.84375 c -2.71974,-4.81449 -11.17544,-19.01478 -27.625,-29.09375 -10.28098,-6.29936 -23.69601,-10.92985 -40.65625,-10.6875 z"
         id="path3924" />
      <path
         style="font-size:medium;font-style:normal;font-variant:normal;font-weight:normal;font-stretch:normal;text-indent:0;text-align:start;text-decoration:none;line-height:normal;letter-spacing:normal;word-spacing:normal;text-transform:none;direction:ltr;block-progression:tb;writing-mode:lr-tb;text-anchor:start;color:#000000;fill:#00ff00;fill-opacity:1;fill-rule:nonzero;stroke:none;stroke-width:4.19999981;marker:none;visibility:visible;display:inline;overflow:visible;enable-background:accumulate;font-family:Adler;-inkscape-font-specification:Adler"
         d="m 329.84894,769.31542 c -5.29729,-1.26202 -15.11151,-10.3192 -26.6518,-10.02162 8.7034,5.98263 19.44956,30.14189 22.05805,40.05287 -6.20097,-5.2577 -31.57375,-38.01872 -37.50763,-34.96018 -0.12238,10.10907 6.6239,22.26243 9.50763,32.61643 -6.78967,-7.83452 -13.90569,-15.9389 -22.125,-22.59375 -10.42188,-8.43818 -22.56892,-14.42346 -37.25,-13.78125 -15.01063,0.65663 -25.04895,10.94379 -32.71875,21.6875 -5.92663,8.3019 -10.79282,16.92892 -15.21875,22.15625 0.52922,-15.42725 1.21929,-19.57922 8.51969,-33.18898 -12.86307,7.48193 -22.59581,18.3242 -32.76969,28.84523 -1.06588,1.07937 -2.00884,1.91921 -2.96875,2.78125 -2.62749,-6.61602 6.20225,-20.54762 11.25557,-26.71098 -6.52827,1.00162 -13.88371,4.40199 -18.47427,6.80473 21.21525,-32.06687 45.23102,-36.32186 81.0625,-38.3125 36.93917,-12.91166 71.33919,-4.89358 93.2812,24.625 z"
         id="path3100"
         sodipodi:nodetypes="cccccssscccccccc" />
      <g
         id="g5207"
         transform="matrix(1.82961,0,0,1.7096607,-611.81574,440.78731)">
        <g
           transform="translate(356.15282,82.66603)"
           id="g5112">
          <path
             style="fill:#ffffff;fill-opacity:1;fill-rule:evenodd;stroke:none"
             d="m 130.47297,-3.2500809 c -9.51577,-1.0964062 -12.52524,0.074699 -13.32971,-4.6293424 -3.97268,0.9626615 -7.31143,-0.1306439 -8.48595,-0.3800039 -2.46705,0.4479928 -3.49194,2.9183556 -9.070489,-1.8687688 -1.42422,-1.09752 -0.404854,1.782601 0.317591,4.2455614 C 91.054195,-5.070263 70.329698,-9.0216788 70.178642,23.958 c 0.27457,0.50858 0.42826,1.25844 0.5,2.40625 0.0717,1.14781 0.084,2.70217 0.0937,4.75 0.0165,3.46308 0.0498,5.36729 0.3125,7.000004 0.2627,1.63271 0.73555,2.98225 1.65625,5.34375 0.59359,1.5225 1.1556,3.30054 1.625,5.125 -0.48492,4.81365 0.20255,11.70851 3.32239,10.69027 1.861127,-0.60743 5.922877,-8.30289 7.427607,-9.12777 1.61912,-0.86419 3.46412,-1.7216 5.34375,-2.46875 1.87963,-0.74715 3.77868,-1.37469 5.5,-1.78125 3.30611,-0.78087 7.153481,-1.31224 11.218751,-1.5625 4.06527,-0.25026 8.35659,-0.24259 12.53125,0 4.17466,0.24259 8.24074,0.73982 11.875,1.4375 1.81713,0.34884 3.53355,0.73197 5.09375,1.1875 1.5602,0.45553 2.96546,0.97374 4.1875,1.53125 1.67693,0.76504 3.1435,1.31463 3.25,1.21875 5.2729,-6.921 5.04858,-13.67618 7.06458,-21.12362 0.48407,-2.34149 -0.21131,-5.123044 -0.0333,-6.845134 C 150.92676,8.7545014 139.59062,2.9093965 130.47297,-3.2500809 z"
             id="path4635"
             sodipodi:nodetypes="ccccccsssscscssssssscccc" />
          <path
             style="fill:#ffaaaa;fill-opacity:1;fill-rule:evenodd;stroke:none"
             d="m 89.48867,49.868554 c 2.104,-0.89069 4.2664,-1.58599 6.59375,-2.11551 2.32735,-0.52951 4.81514,-0.8778 7.625,-1.10512 2.80986,-0.22731 5.91721,-0.33166 9.46875,-0.31574 3.99752,0.0179 7.54484,0.16118 10.6875,0.41047 3.14266,0.24928 5.88686,0.62052 8.34375,1.13669 2.45689,0.51617 4.62227,1.17064 6.5625,1.98921 1.94023,0.81857 3.65734,1.77995 5.25,2.93646 1.48216,1.07626 2.48273,1.9081 3.40625,3.03118 0.92352,1.12309 1.76387,2.53836 3,4.7678 1.39889,2.52296 2.15342,3.91392 2.5625,5.27299 0.40908,1.35907 0.48382,2.68858 0.59375,5.17827 0.0908,2.05642 0.0909,3.5821 -0.0625,4.98882 -0.15342,1.40672 -0.4752,2.68928 -0.96875,4.32575 -0.75753,2.51173 -1.64014,4.78779 -2.75,6.85173 -1.10986,2.06394 -2.44721,3.9356 -4,5.65189 -1.55279,1.71628 -3.31993,3.26745 -5.40625,4.73622 -2.08632,1.46877 -4.47705,2.846456 -7.1875,4.167856 -1.65715,0.8079 -3.1958,1.47897 -4.6875,2.05237 -1.4917,0.57339 -2.94696,1.06357 -4.46875,1.45244 -3.04358,0.77775 -6.31898,1.23928 -10.65625,1.57874 -3.93612,0.19101 -8.13649,0.30922 -12.3125,0.15787 -2.088,-0.0757 -4.15781,-0.22415 -6.21875,-0.47362 -2.06094,-0.24947 -4.08664,-0.5915 -6.0625,-1.07354 -1.97586,-0.48205 -3.91725,-1.08947 -5.75,-1.86292 -1.83275,-0.77344 -3.55588,-1.7181 -5.1875,-2.84173 -1.63162,-1.123616 -3.15879,-2.445796 -4.53125,-3.978416 -1.37246,-1.53261 -2.60096,-3.27258 -3.65625,-5.27299 -0.90127,-1.75926 -1.53146,-3.23605 -1.875,-4.54677 -2.76848,-9.17122 -1.23691,-2.56793 -1.25,-7.95685 -0.23356,-0.21247 0.1072,-1.90278 0.6875,-3.85213 0.5803,-1.94934 1.39809,-4.1431 2.03125,-5.27299 0.69409,-1.23861 2.4991,-4.09849 4.03125,-6.34654 l 2.78125,-4.07314 c 3.22114,-3.83414 4.14649,-4.85578 13.40625,-9.59875 z"
             id="path4843"
             sodipodi:nodetypes="cssssssssssssssssssscsssssscccssccc" />
          <path
             id="path4845"
             d="m 66.33571,69.564104 c 3.55394,-4.76708 6.7663,-7.60923 7.27625,-11.52673 -13.174653,-47.53064 -5.262794,-65.0647843 24.483835,-64.3832013 0.26104,-0.2143 1.411035,1.9215803 0.256135,0.03001 -3.0813,-5.0467897 -5.674055,-7.6889587 3.49805,-3.8565997 1.35456,0.565972 2.64625,1.3090997 3.0114,1.3181697 0.36515,0.009 0.96316,-1.05342 1.32891,-2.3610897 0.50536,-1.80686 0.94146,-2.37759 1.81675,-2.37759 1.27914,0 2.65142,1.61406 3.25674,3.8305497 0.38595,1.41323 1.62602,1.94079 2.28965,0.97408 0.49651,-0.72327 7.96497,-3.6740237 10.23054,-2.8397087 1.78634,0.657835 -2.21691,2.7867187 -3.20489,4.6611287 -0.51441,0.97596 -0.78295,1.99639 -0.59675,2.26763 6.54933,-2.0136814 13.84788,0.2273729 20.045,2.8203885 5.93581,3.064197 12.91799,11.0249585 14.16046,24.2139018 -0.19872,2.57512 -1.37984,8.09735 -2.76864,12.94464 -1.47374,5.143741 -2.4538,9.798281 -2.50312,11.887931 -0.0762,3.22649 0.11906,3.76996 3.22637,8.98199 5.9017,9.89914 7.08524,16.34888 4.60532,25.09675 -3.16886,11.17809 -10.06959,18.50268 -22.37854,23.753026 -7.74707,3.3045 -12.2534,4.07241 -25.69065,4.37781 -12.21582,-0.36954 -24.43666,-0.65874 -36.13048,-9.380186 -9.30487,-9.66132 -9.93276,-19.79317 -6.21234,-30.4329 z m 47.15068,36.753986 c 8.67453,-0.67193 13.19728,-1.81577 19.8259,-5.01413 10.84181,-5.231216 16.32815,-11.232856 19.35828,-21.176456 0.9871,-3.23926 1.19802,-5.15335 1.01642,-9.22389 -0.21986,-4.92816 -0.34738,-5.34744 -3.14515,-10.34147 -2.47226,-4.41299 -3.44806,-5.58744 -6.41237,-7.71783 -6.37065,-4.57845 -14.84544,-6.34059 -30.83552,-6.41155 -14.20614,-0.063 -21.44224,1.56639 -30.00148,6.75577 -2.03934,1.23643 -3.23731,1.68659 -3.39011,1.27389 -0.63338,-1.71068 9.19362,-6.95576 16.07892,-8.582 13.22443,-3.12348 35.12133,-1.85104 44.89764,2.60902 1.67693,0.76504 3.13611,1.31253 3.24261,1.21665 0.1065,-0.0959 -0.0697,-1.2861 -0.39166,-2.64493 -0.3219,-1.35884 -0.48792,-3.25788 -0.36893,-4.22011 l 0.21636,-1.7495 0.95338,1.84924 c 0.62423,1.21078 1.04385,1.57561 1.21542,1.0567 5.57052,-17.175286 11.2951,-29.556327 -5.60076,-40.8916806 -4.5197,-2.4786 -8.46271,-6.3039158 -15.57026,-5.8778757 -4.96684,0.2977216 -7.24956,1.0079084 -8.95575,0.2423553 -0.43308,-0.1943195 -0.13935,-1.44676 0.3261,-2.44966 0.69406,-1.4955 0.69119,-1.74498 -0.0201,-1.74498 -0.45646,0 -1.71144,0.6968 -2.78884,1.54845 -2.12521,1.6799 -3.12963,1.54884 -3.45131,-0.45036 -0.31218,-1.94004 -1.67306,-2.03488 -1.67306,-0.11659 0,2.38253 -0.91551,2.46996 -3.66635,0.35012 -2.84843,-2.19503 -5.256835,-5.65465 -3.53111,-2.6092303 2.07266,3.65764 1.52315,5.1782496 -3.757285,5.0614 C 78.793958,-3.3447046 72.08537,8.3040968 71.034313,22.409604 c -0.227531,3.053535 -0.07823,5.135228 -0.268703,8.694109 0.0329,6.926161 0.14654,7.632431 1.98793,12.355431 1.18718,3.045 2.24494,7.1563 2.69744,10.48438 l 0.7444,5.47503 -2.78572,4.04532 c -1.53215,2.22492 -3.35363,5.0483 -4.04772,6.27417 -1.26633,2.23654 -3.18791,8.62515 -2.72079,9.0457 -0.13463,6.07297 1.40692,8.27451 3.13818,12.35964 8.44228,15.838636 27.96258,15.930896 43.70706,15.174706 z M 98.50936,69.082274 c -0.9482,-1.87356 0.0217,-4.91336 1.98657,-6.22613 1.4969,-1.00011 1.65951,-1.0091 3.08107,-0.17053 1.86943,1.10276 2.00485,3.54441 0.33346,6.01236 -1.51557,2.23787 -4.36057,2.4403 -5.4011,0.3843 z m 35.46872,-0.3843 c -1.3529,-1.52242 -1.39224,-3.09361 -0.13595,-5.42999 0.97482,-1.81291 1.59484,-2.36321 2.66267,-2.36321 2.20522,0 3.93867,2.03011 3.56107,4.1705 -0.57087,3.23596 -4.40429,5.51714 -6.08779,3.6227 z M 97.44846,31.845383 c -1.47886,-1.33139 -1.63574,-6.03963 -0.26016,-7.80772 2.84899,-3.66194 6.38675,1.70716 4.33153,6.57378 -1.03922,2.46081 -2.28817,2.83934 -4.07137,1.23394 z m 23.75147,-2.47476 c -2.19422,-3.0149 -1.6269,-8.09229 0.90419,-8.09229 1.53224,0 2.84129,1.92983 3.28472,4.84241 0.64213,4.21771 -1.99531,6.26391 -4.18891,3.24988 z"
             style="fill:#000000"
             sodipodi:nodetypes="cccssssssssscccsssssccccsssssssssssscccccssssssssssscscccsccccsssccsssccssccssc" />
        </g>
        <g
           transform="matrix(1.2609352,-0.19271712,0.16827636,1.2609352,-137.04437,61.835477)"
           id="g5148"
           style="stroke-width:1.99756539;stroke-miterlimit:4;stroke-dasharray:none">
          <path
             style="fill:#ffdcac;fill-opacity:1;stroke:#000000;stroke-width:1.99756539;stroke-linecap:butt;stroke-linejoin:miter;stroke-miterlimit:4;stroke-opacity:1;stroke-dasharray:none"
             d="m 425.55544,56.610671 c 5.18916,-0.933518 1.98049,13.881204 10.78756,20.395266 8.34052,6.16897 16.48847,4.516351 13.83585,11.326715 -2.98653,7.667639 -15.87975,1.307856 -23.64701,-9.396111 -2.76466,-6.194955 -3.33518,-21.644336 -0.9764,-22.32587 z"
             id="path5117"
             sodipodi:nodetypes="csscc" />
        </g>
        <path
           inkscape:transform-center-y="0.13472891"
           inkscape:transform-center-x="7.5678745"
           style="fill:#ffdcac;fill-opacity:1;stroke:#000000;stroke-width:2.54435849;stroke-linecap:butt;stroke-linejoin:miter;stroke-miterlimit:4;stroke-opacity:1;stroke-dasharray:none"
           d="m 519.46914,50.109338 c -6.57095,-1.759571 -0.27691,13.497186 -10.94955,22.82778 -9.26176,8.097129 -24.73329,4.321757 -20.51275,12.676901 5.15154,10.198213 22.13458,2.616007 31.23375,-9.498651 4.13327,-7.650676 3.19112,-24.876147 0.22855,-26.00603 z"
           id="path5195"
           sodipodi:nodetypes="csscc" />
      </g>
      <g
         id="g4933"
         transform="matrix(1.82961,0,0,1.7096607,-101.20786,650.44673)">
        <path
           sodipodi:nodetypes="cssssccsssssssssssscc"
           id="path4841"
           d="m 248.80322,-40.029276 c -2.59752,-0.0013 -5.26815,0.343585 -7.96444,1.057713 -2.69631,0.714116 -5.40709,0.566762 -8.06527,1.926909 -2.65819,1.360133 -5.27966,3.027009 -7.76282,4.96311 -2.48317,1.936089 -5.33532,3.803912 -7.50656,6.24592 -1.37208,1.543204 -3.0914,3.151448 -3.40253,3.151448 -5.19676,3.605482 -7.51149,13.3380209 9.83366,12.611182 0.26801,-0.349168 0.68723,-0.60781 1.2434,-0.813627 0.55617,-0.205813 1.25141,-0.354048 2.15073,-0.488174 2.26972,-0.338506 5.99907,-1.508408 9.87996,-3.010411 3.88089,-1.502004 7.92568,-3.328674 10.75369,-4.96311 3.21986,-1.860924 5.79466,-3.595702 7.86363,-5.288561 2.06896,-1.692874 3.61104,-3.34845 4.73834,-5.044473 0.59714,-0.898385 1.06603,-1.755254 1.37782,-2.562916 0.31178,-0.807679 0.47142,-1.567331 0.50408,-2.27815 0.0327,-0.710834 -0.0622,-1.34485 -0.30244,-1.9527 -0.24025,-0.607862 -0.60207,0.03637 -1.10898,-0.462385 -0.50692,-0.498759 -1.14813,-0.958944 -1.9155,-1.342481 -0.76737,-0.38355 -1.66683,-0.714154 -2.68842,-0.976349 -2.04319,-0.524391 -4.60567,-0.770691 -7.6284,-0.772945 l 5e-5,0 z"
           style="fill:#ffffff;fill-opacity:1;fill-rule:evenodd;stroke:none" />
        <path
           id="path4849"
           d="m 245.13872,-31.071831 c 1.78011,-0.0458 3.24985,0.18024 3.375,0.5 0.12151,0.31045 -0.38315,1.37778 -1.125,2.375 -0.39148,0.52625 -1.08321,1.10447 -2,1.71875 -0.91679,0.61429 -2.07009,1.25471 -3.34375,1.875 -2.54733,1.2406 -5.6295,2.41503 -8.59375,3.1875 -2.88247,0.75116 -5.08236,1.22619 -6.5625,1.375 -0.74007,0.0744 -1.3126,0.0464 -1.6875,-0.0312 -0.3749,-0.0777 -0.5625,-0.20681 -0.5625,-0.4375 0,-0.33386 0.33635,-0.83249 0.9375,-1.40625 0.60115,-0.57375 1.4769,-1.22396 2.53125,-1.9375 2.10869,-1.42706 4.96619,-3.05209 8,-4.4375 2.35315,-1.07458 3.98681,-1.73994 5.34375,-2.15625 1.35694,-0.41631 2.43279,-0.5927 3.6875,-0.625 z"
           style="fill:#ffaaaa;fill-opacity:1;fill-rule:evenodd;stroke:none" />
        <path
           sodipodi:nodetypes="cssssccssscccssssccsssssc"
           style="fill:#000000"
           d="m 226.59657,-13.607105 c 4.22129,-0.52006 15.49952,-4.715667 20.75912,-7.226707 5.98841,-2.85899 9.64177,-5.32829 11.73835,-7.93395 4.44226,-5.5209 0.3006,-8.88709 -10.94294,-8.89402 -9.66186,-0.006 -20.56786,4.60377 -28.64411,12.10723 -1.27592,1.18544 -2.55657,2.15534 -2.84589,2.15534 -3.43376,-0.878977 0.29047,-3.710189 2.55644,-5.58765 10.32863,-9.64804 26.04336,-13.99234 37.841,-10.46107 3.31299,0.99165 4.73282,1.95302 5.90929,4.00122 2.02542,3.52618 -0.0256,8.30356 -5.17243,12.04759 -5.50553,4.00502 -22.61505,10.967054 -29.82079,12.178834 -2.33121,1.356877 -3.99482,-1.447851 -1.37804,-2.386817 z m -3.44925,-4.550907 c -3.40863,-1.78738 2.94683,-7.84186 12.76252,-12.1581 7.35781,-3.23545 12.17406,-3.97882 13.99534,-2.16013 1.44211,1.44006 0.8574,3.80055 -1.55385,6.27298 -3.25562,3.33824 -9.56395,6.1631 -17.42799,7.80423 -4.44581,0.92779 -6.35356,0.98693 -7.77602,0.24102 z m 10.1235,-3.17292 c 5.9285,-1.54495 12.37058,-4.68237 13.93652,-6.78736 0.74185,-0.99722 1.2494,-2.06713 1.12789,-2.37758 -0.12515,-0.31976 -1.58315,-0.52938 -3.36326,-0.48355 -2.50941,0.0646 -4.32933,0.62296 -9.03562,2.77212 -6.06761,2.77082 -11.46858,6.42593 -11.46858,7.76138 0,0.92275 3.0381,0.61731 8.80305,-0.88501 z"
           id="path4639" />
      </g>
      <g
         id="g4928"
         transform="matrix(1.82961,0,0,1.7096607,32.65802,597.01528)">
        <path
           style="fill:#ffffff;fill-opacity:1;fill-rule:evenodd;stroke:none"
           d="m 81.044686,7.1933507 c -0.33394,0 -3.241172,-1.826861 -6.461874,-4.052702 -3.482686,-2.40690501 -7.067217,-4.540236 -10.508704,-6.2816873 -3.441487,-1.7414622 -6.745966,-3.1048343 -9.69281,-3.9513842 -1.729297,-0.4967856 -3.489057,-0.8387904 -5.156445,-1.046948 -1.667388,-0.2081684 -3.236085,-0.2743409 -4.666909,-0.202635 -1.430823,0.071652 -2.70087,0.265079 -3.720472,0.6079051 -1.019603,0.3428154 -1.785493,0.8470256 -2.21923,1.4522182 -0.404328,0.5641469 -0.531926,1.5555458 -0.391628,2.7355737 0.140296,1.1800279 0.5186,2.5356728 1.14225,3.81629349 0.413612,0.84931701 1.166897,1.87564401 2.121322,2.97198201 0.954425,1.096336 2.135943,2.276191 3.36148,3.377251 1.225537,1.10106 2.493516,2.14228 3.720473,3.005754 1.226957,0.8634733 2.402793,1.5414423 3.361479,1.9250333 2.389228,0.955984 6.784284,2.303793 10.867697,3.411024 4.083413,1.107231 7.852323,1.978659 9.040096,1.992579 1.151535,0.01351 2.030516,-0.0055 2.676129,0.135089 -1.568907,0.308139 16.493859,3.83149 6.527146,-9.8953463 z"
           id="path4926"
           sodipodi:nodetypes="cssssssssssssssscc" />
        <path
           id="path4847"
           d="m 54.481574,0.80786769 c 1.26798,-0.0242 3.02312,0.25616001 4.9375,0.81250001 1.65971,0.48233 3.59669,1.23617 5.53125,2.125 1.93456,0.88883 3.86898,1.91338 5.5625,2.90625 1.69352,0.99287 3.12592,1.95554 4.0625,2.75 0.46829,0.39723 0.81767,0.7403403 1,1.0312503 0.18233,0.29091 0.19937,0.54071 0.0312,0.6875 -0.47108,0.41132 -1.1867,0.66619 -1.9375,0.78125 -0.7508,0.11506 -1.52242,0.0858 -2.15625,-0.15625 -0.64556,-0.24647 -3.68425,-1.12149 -6.75,-1.9375003 -2.55367,-0.67971 -4.0376,-1.10989 -5.25,-1.71875 -1.2124,-0.60886 -2.17224,-1.40186 -3.71875,-2.78125 -1.85662,-1.656 -3.375,-3.25779 -3.375,-3.5625 0,-0.2964 0.20666,-0.53252 0.5625,-0.6875 0.35584,-0.15498001 0.86601,-0.23792001 1.5,-0.25000001 z"
           style="fill:#e9afaf;fill-opacity:1;fill-rule:evenodd;stroke:none" />
        <path
           id="path4924"
           d="m 73.720591,18.762119 -4.38701,-0.65901 c -10.68107,-1.6045 -20.844249,-5.62053 -25.745039,-10.1732903 -4.0417,-3.75467 -5.91941,-6.68313 -6.33447,-9.8791696 -0.27141,-2.0899 -0.10785,-2.81999 0.88487,-3.94975 1.7726,-2.0173 4.77076,-3.10505 8.55847,-3.10505 8.08432,0 16.758759,3.21198 26.914889,9.96606959 0.42626,0.42186001 11.14651,5.52947001 6.855,6.41286001 -0.31976,0 -3.10462,-1.68513 -6.18857,-3.74472 -6.66962,-4.45424961 -13.69454,-7.8893296 -19.33798,-9.4559796 -6.623499,-1.83871 -13.441629,-1.50851 -15.102919,0.73142 -0.77432,1.04402 -0.44697,3.70461 0.74738,6.07453959 1.58419,3.14350001 8.34417,9.01239001 12.01608,10.43215031 4.575549,1.76916 16.790569,4.9698 19.065249,4.99557 4.66911,0.30665 5.50295,1.07354 2.05405,2.35436 z m -9.40148,-7.05589 C 57.118941,9.2147687 52.669112,6.5147387 50.460232,3.2970687 c -1.36315,-1.9857 -1.04569,-3.62269961 0.8051,-4.15153961 2.23314,-0.63809999 6.721369,-0.27085999 9.930799,0.8125496 7.22986,2.44061001 16.33911,8.34035001 16.33911,10.58229031 0,2.91706 -6.49858,3.49033 -13.21613,1.16586 z m 11.16209,-0.73582 c 1.34496,-1.1743503 -9.55624,-7.5654703 -16.19509,-9.4947903 -3.82875,-1.11268001 -6.986279,-1.05253001 -6.986279,0.13308 0,0.30471 1.51906,1.90893 3.375679,3.56493 3.09301,2.75878 3.84244,3.13514 8.94977,4.49455 3.06575,0.8160103 6.10227,1.6853103 6.74783,1.9317803 1.26766,0.48399 3.16593,0.19309 4.10809,-0.62955 z"
           style="fill:#000000"
           sodipodi:nodetypes="ccssssccssssscccssssccsssssc" />
      </g>
      <path
         sodipodi:nodetypes="ccc"
         transform="matrix(2.9789781,0,0,2.9789781,-95.576572,466.04528)"
         id="path4117"
         d="m 17.276222,81.158948 c -1.073058,5.150674 0.107305,12.876687 5.687204,14.271661 C 19.744253,91.352992 17.383527,85.12926 17.276222,81.158948 z"
         style="fill:#ffffff;stroke:none" />
      <path
         sodipodi:nodetypes="ccc"
         id="path4117-9"
         d="m -38.153128,695.66889 c -3.516278,20.45832 6.073565,44.43294 14.704426,45.07226 -9.270183,-14.70443 -10.229169,-27.49089 -14.704426,-45.07226 z"
         style="fill:#ffffff;stroke:none" />
      <path
         sodipodi:nodetypes="ccc"
         id="path4117-9-8"
         d="m -30.312407,692.95176 c -3.516278,20.45832 0.639322,35.48242 13.425781,38.67903 -9.270183,-14.70443 -8.950524,-14.38477 -13.425781,-38.67903 z"
         style="fill:#ffffff;stroke:none" />
      <path
         sodipodi:nodetypes="ccc"
         id="path4117-9-8-3"
         d="m -25.748708,685.71514 c 2.237627,20.13866 4.475259,33.88412 14.065104,33.56445 -5.434247,-5.43425 -6.073572,-18.54037 -14.065104,-33.56445 z"
         style="fill:#ffffff;stroke:none" />
    </g>
  </g>
</svg>
